 <svg
                        width="24"
                        height="24"
                        viewBox="0 0 24 24"
                        fill="none"
                        xmlns="http://www.w3.org/2000/svg"
                      >
                        <path
                          d="M16.9688 17.75C17.1562 17.75 17.25 17.8438 17.25 18.0312V18.5H6.75V18.0312C6.75 17.8438 6.84375 17.75 7.03125 17.75H7.5V7.0625C7.5 6.90625 7.55469 6.77344 7.66406 6.66406C7.77344 6.55469 7.90625 6.5 8.0625 6.5H15.9375C16.0938 6.5 16.2266 6.55469 16.3359 6.66406C16.4453 6.77344 16.5 6.90625 16.5 7.0625V17.75H16.9688ZM9.75 8.28125V9.21875C9.75 9.40625 9.84375 9.5 10.0312 9.5H10.9688C11.1562 9.5 11.25 9.40625 11.25 9.21875V8.28125C11.25 8.09375 11.1562 8 10.9688 8H10.0312C9.84375 8 9.75 8.09375 9.75 8.28125ZM9.75 10.5312V11.4688C9.75 11.6562 9.84375 11.75 10.0312 11.75H10.9688C11.1562 11.75 11.25 11.6562 11.25 11.4688V10.5312C11.25 10.3438 11.1562 10.25 10.9688 10.25H10.0312C9.84375 10.25 9.75 10.3438 9.75 10.5312ZM10.9688 14C11.1562 14 11.25 13.9062 11.25 13.7188V12.7812C11.25 12.5938 11.1562 12.5 10.9688 12.5H10.0312C9.84375 12.5 9.75 12.5938 9.75 12.7812V13.7188C9.75 13.9062 9.84375 14 10.0312 14H10.9688ZM12.75 17.75V15.7812C12.75 15.5938 12.6562 15.5 12.4688 15.5H11.5312C11.3438 15.5 11.25 15.5938 11.25 15.7812V17.75H12.75ZM14.25 13.7188V12.7812C14.25 12.5938 14.1562 12.5 13.9688 12.5H13.0312C12.8438 12.5 12.75 12.5938 12.75 12.7812V13.7188C12.75 13.9062 12.8438 14 13.0312 14H13.9688C14.1562 14 14.25 13.9062 14.25 13.7188ZM14.25 11.4688V10.5312C14.25 10.3438 14.1562 10.25 13.9688 10.25H13.0312C12.8438 10.25 12.75 10.3438 12.75 10.5312V11.4688C12.75 11.6562 12.8438 11.75 13.0312 11.75H13.9688C14.1562 11.75 14.25 11.6562 14.25 11.4688ZM14.25 9.21875V8.28125C14.25 8.09375 14.1562 8 13.9688 8H13.0312C12.8438 8 12.75 8.09375 12.75 8.28125V9.21875C12.75 9.40625 12.8438 9.5 13.0312 9.5H13.9688C14.1562 9.5 14.25 9.40625 14.25 9.21875Z"
                          fill="#4D6A80"
                        />
                      </svg>