 <svg
                    width="24"
                    height="24"
                    viewBox="0 0 24 24"
                    fill="none"
                    xmlns="http://www.w3.org/2000/svg"
                  >
                    <path
                      d="M13.5 14.375V13.25H18V16.625C18 16.9219 17.8828 17.1797 17.6484 17.3984C17.4297 17.6328 17.1719 17.75 16.875 17.75H7.125C6.82812 17.75 6.5625 17.6328 6.32812 17.3984C6.10938 17.1797 6 16.9219 6 16.625V13.25H10.5V14.375C10.5 14.4844 10.5312 14.5781 10.5938 14.6562C10.6719 14.7188 10.7656 14.75 10.875 14.75H13.125C13.2344 14.75 13.3203 14.7188 13.3828 14.6562C13.4609 14.5781 13.5 14.4844 13.5 14.375ZM16.875 9.5C17.1719 9.5 17.4297 9.61719 17.6484 9.85156C17.8828 10.0703 18 10.3281 18 10.625V12.5H6V10.625C6 10.3281 6.10938 10.0703 6.32812 9.85156C6.5625 9.61719 6.82812 9.5 7.125 9.5H9V8.375C9 8.07812 9.10938 7.82031 9.32812 7.60156C9.5625 7.36719 9.82812 7.25 10.125 7.25H13.875C14.1719 7.25 14.4297 7.36719 14.6484 7.60156C14.8828 7.82031 15 8.07812 15 8.375V9.5H16.875ZM13.5 9.5V8.75H10.5V9.5H13.5Z"
                      fill="#4D6A80"
                    />
                  </svg>
